<svg xmlns="http://www.w3.org/2000/svg" width="551.9" height="123.4" viewBox="0 0 551.9 123.4" preserveAspectRatio="xMinYMid meet"><title>library-logo</title><path d="M555.9,48.6v8.3c0,15.3-7.6,49.3-44.6,67.4-37-18.1-44.5-52.1-44.5-67.4V48.6Z" transform="translate(-4 -0.9)" fill="#b0b7bb"/><path d="M511.3,11.5s29.1-.4,44.6,5.7V48.6H466.8V17.2c15.5-6.1,44.5-5.7,44.5-5.7" transform="translate(-4 -0.9)" fill="#b4121b"/><path d="M476.5,20.7h-.3l.3-.2a1,1,0,0,1,.8-.3,1.9,1.9,0,0,1,1,.4h-.2l-.3.3a1.3,1.3,0,0,0-1-.4Zm.9,2.7h-.7a1.1,1.1,0,0,0-.9.5,1.3,1.3,0,0,0-.3.5h.2l.9-.3h.4c.1-.3.3-.5.3-.6Zm.3-1.5a.1.1,0,0,0-.1.1h0v.2a.4.4,0,0,0,.2.4l1.1.7a3.6,3.6,0,0,1,.7-1l-.6-1.2h-.3l-.3.2A1.7,1.7,0,0,0,477.7,21.9ZM479.9,42a3.1,3.1,0,0,0-.2.8h.1a1.7,1.7,0,0,1,.9-.8c-.1-.2-.1-.4-.2-.6A1.9,1.9,0,0,0,479.9,42ZM481,28c.6.4.9.6,1.1.6s.2-.1.3-.2l.3-.3c0-.1.1-.3.1-.4a1.2,1.2,0,0,0-.2-.7h0c0-.2-1.3-3.1-1.7-4.3v-.4h-.1a.1.1,0,0,0-.1-.1l-.3.2a2,2,0,0,0-1.1,1.9A5.8,5.8,0,0,0,481,28Zm-2.2-3.9v-.2l-.5-.3a.7.7,0,0,0-.6.2,1.5,1.5,0,0,0-.4.9c0,.1.1.2.1.3l.5.3,1.1.3a5.9,5.9,0,0,1-.2-1.3Zm2-4.9h.1a.6.6,0,0,1,.5.2,1.2,1.2,0,0,0-.5-1.1,1.1,1.1,0,0,0-.8-.2h0A1.6,1.6,0,0,1,480.8,19.2Zm-1.1,1.6c0,.2.1.4.1.6s.2.6.2.6a.1.1,0,0,0,.1-.1h0l.6-.2h.2a1.4,1.4,0,0,0,.2-.6l.2-.6v-.7a.5.5,0,0,0-.4-.2h-.2c-.3.1-.8.2-1,.5a.4.4,0,0,0,0,.5Zm5.2.6a1.6,1.6,0,0,0,.4-1,1.1,1.1,0,0,0-.3-.8l-.2-.2v.2c0,.1.1.3.1.4a1,1,0,0,1-.4.9A1,1,0,0,1,484.9,21.4Zm10.1-2h0a.8.8,0,0,1,.2-.5c.1-.2.3-.4.2-.6s-.2-.2-.2-.4,0-.2.1-.2a.5.5,0,0,1,.4-.2l1.6-.5c.1-.1.1-.3.3-.4l.9-.3c1.2-.3,4.7-.5,5-.6l.4.2c.2.2.5.4.6.7l.2.2h1.1l.3.6c.1.1.1.2.1.4a3.5,3.5,0,0,1-1,2.1h0a7.9,7.9,0,0,1,1.5,4.2l-.4-.6a.1.1,0,0,0-.1-.1.2.2,0,0,0-.2-.2h-.1a.1.1,0,0,0-.1.1c-.1,0-.1.1-.1.2V24a15.6,15.6,0,0,1,.6,4.3h0l-.5-.9a.4.4,0,0,0-.4-.2h-.1c-.1.1-.1.1-.1.2h0a6,6,0,0,1,.4,2.2,6.2,6.2,0,0,1-.4,2.2.8.8,0,0,1-.2.6c0,.1,0,.1-.1.2s-.1-.2-.1-.3a5.9,5.9,0,0,1-.4-.8l-.2-.2a.1.1,0,0,0-.1-.1c-.1,0-.2,0-.2.1v.2h0a1.1,1.1,0,0,1,.1.5,5,5,0,0,1-1.2,3.3,2.8,2.8,0,0,1-.9.7l-.2.2V34.4c0-.1-.1-.2-.1-.3s-.1-.1-.2-.1h-.1c-.1.1-.1.1-.1.2a5.5,5.5,0,0,1-1.3,1.9,1.4,1.4,0,0,1-.9.4h-.3c.1,0,.2-.2.2-.4a1.5,1.5,0,0,0,.3-1,.7.7,0,0,0-.2-.6,1.3,1.3,0,0,0-1-.3h-.4a10,10,0,0,0-3.7,1.4l-2.1,1.1a2.7,2.7,0,0,1-.4-1.4,2.9,2.9,0,0,1,.4-1.4l.3-.4h.2v-.2c.1-.1,0-.1,0-.2h-.2a2.2,2.2,0,0,0-1.3.4l-.4.4a4.5,4.5,0,0,1,1.3-3.4,2.8,2.8,0,0,1,1.5-1l.3-.2v-.2h0c0-.1,0-.1-.1-.1h-.2l-.8-.2h-.6a4.3,4.3,0,0,1,3.5-1.6h1.1c0-.1.1-.1.1-.2a.3.3,0,0,0-.1-.2.1.1,0,0,1-.1-.1h0l-.7-.3-.2-.2h1.1l1,.2a2.2,2.2,0,0,0,1.3-.5l.5-.8c0-.1.1-.3.1-.4a.7.7,0,0,0-.4-.5h-.5a.8.8,0,0,0-.8.3l-.4.2h-.2l-.5-.5h-.4l.7-.3h1.6a1.3,1.3,0,0,0,.9-.4,1.4,1.4,0,0,0,.2-.7,1.2,1.2,0,0,0-.1-.5,10.7,10.7,0,0,0-.9-1.9.8.8,0,0,0-.7-.4,1.5,1.5,0,0,0-.9.4c-.3.2-.5.3-.5.4a.7.7,0,0,1-.6.2l-.6-.2A.9.9,0,0,1,495,19.4Zm3.3-1.8.5.3h.1l.4-.3c0-.1.4-.3.4-.4s-1,0-1.2,0l-.3.2h-.1C497.9,17.6,498.3,17.6,498.3,17.6Zm-16.9,5a28.7,28.7,0,0,0,1.5,3.7l.2.5a2.2,2.2,0,0,1,.2.9,1.9,1.9,0,0,1-.2.7l-.4.5h0a.1.1,0,0,1-.1.1v.4a1.1,1.1,0,0,0,.1.5l.4.6a1.6,1.6,0,0,0,.5.8v.2h.1v-.3h0c0-.2.1-.4.1-.6s.1-.3.2-.3l.3.2a2.5,2.5,0,0,0,.2.7h0a.3.3,0,0,0,.1.2l.4.7a3.5,3.5,0,0,0,1.4,1.3c0-.1.1-.1.1-.2a5.6,5.6,0,0,0-.1-.7h0c0-.1,0-.1.1-.2h.2c.1,0,.1,0,.1.1s.1,0,.1.1h.1l.3.4,1,1.2a4.9,4.9,0,0,0,2.4,1.8v-.7A5.9,5.9,0,0,1,491,34c0,.1-.1.1-.2.2l-1.2,1V33.6a5.2,5.2,0,0,1,1.5-3.8l.9-.7h-.8a13,13,0,0,1-7.8-3.8,2.1,2.1,0,0,1-.7-1.4,1.2,1.2,0,0,1,.4-.9,2.4,2.4,0,0,1,1.1-.8h.1c.1,0,.1-.1.1-.2l-.4-.5-1-.8-.3-.2h-.3c-.3.3-1.2,1-1.1,1.9ZM484.5,38h0c0-.1,0-.2-.2-.4l-.4-.4h-.6c0,.1,0,.1-.1.1H483l-.6.4c0,.1.1.1.1.2a3.8,3.8,0,0,0,1.2.9l.7.2v-.2a5.4,5.4,0,0,1,.1-.8Zm-3.6-.1a1.8,1.8,0,0,0-1,.4l-.3.3h1.3l.4-.5Zm2.8-2.2a1.1,1.1,0,0,0-.7-.3h.1a1.6,1.6,0,0,1,.7,1.1h.2l.5.4A1.6,1.6,0,0,0,483.7,35.7Zm54.4,3.8h0c.1,0,.2-.2.3-.3s.1-.1.2-.1a1.3,1.3,0,0,0-.8-.2,1.2,1.2,0,0,0-.9.3l-.3.3a.1.1,0,0,0,.1-.1h.6a1,1,0,0,1,.7.2Zm-.1,1.1a1.5,1.5,0,0,0,.4.9c.1.2.3.2.5.2h.7c.1,0,.6-.1.4-.3l-.3-.4c0-.2-.1-.3-.2-.5s-.1-.5-.2-.8a.4.4,0,0,0-.1-.3c0-.1-.1-.1-.2-.1h-.2l-.7.8A.4.4,0,0,0,538,40.6Zm-2,2.5a3.1,3.1,0,0,0-.2.8h0c0-.1.1-.1.1-.2a2.2,2.2,0,0,1,1-.8v-.6h0A1.6,1.6,0,0,0,536,43.1Zm-23.1-4.5h.7a2,2,0,0,0-.7-1,1.5,1.5,0,0,0-.9-.2h0a1.8,1.8,0,0,1,.9.9h0Zm26.9,5.7c-.1-.1-.1-.2-.2-.2a1.9,1.9,0,0,0-.3.9,1.7,1.7,0,0,0,.5,1.2V46a4.3,4.3,0,0,1-.1-.5,1.5,1.5,0,0,1,.3-.8h.1Zm3.7.1h-.7a1.5,1.5,0,0,0,.7,1l.9.2h0a.1.1,0,0,0-.1-.1A1.3,1.3,0,0,1,543.5,44.4Zm-60.4-1a1.3,1.3,0,0,0-.5,1.1c0,.2.1.3.1.5v-.2a1.7,1.7,0,0,1,.7-.9l-.2-.3A.3.3,0,0,0,483.1,43.4Zm25.2-4.3a2.4,2.4,0,0,0-1,.3h1l.4-.4Zm.6,2h1.2v-.2c.1-.2.1-.4.2-.5v-.8l-.6-.5c0-.1-.1-.1-.3-.1h-.3l-.4.3c-.1.1-.2.2-.2.3s0,.2.1.2a1.1,1.1,0,0,1,.2.7Zm35.6.9a.6.6,0,0,1-.1-.4,1.5,1.5,0,0,1,.4-.9h0a1.6,1.6,0,0,0,.3-.9,2.1,2.1,0,0,0-.8-1.6,1.2,1.2,0,0,1-.1-.5,2.6,2.6,0,0,1,.3-1,7.9,7.9,0,0,0,.3-1.3,1.3,1.3,0,0,0-.1-.6c-.1.4-.2,1.1-.7,1.1s-.3-.5-.3-.7.1-.1.1-.2v-.8a3.6,3.6,0,0,0-.2-1.4,1.5,1.5,0,0,1-.3.7h-.2c-.1,0-.1-.1-.2-.2a.3.3,0,0,1-.1-.2.5.5,0,0,1-.1-.3,3.7,3.7,0,0,0-.1-.8,6.2,6.2,0,0,0-.3-1,.6.6,0,0,0-.1.4c-.1.3-.1.6-.4.6s-.2-.1-.3-.3-.1-.3-.1-.5l-.3-1c-.1-.1-.1-.3-.2-.3h0l-.3.5a4.1,4.1,0,0,1-.9,1,3,3,0,0,1-1.9.7,6.8,6.8,0,0,1-3.3-1L532,29.6l-.2-.2h1a6.2,6.2,0,0,0,3.1-.5,5.8,5.8,0,0,0,2-1.7,4.9,4.9,0,0,1,1.8-1.7,2.8,2.8,0,0,1,1.5-.4l1.4.2a2.4,2.4,0,0,0-2.3-1.5,3.4,3.4,0,0,0-2.5,1.3h-.1V25h0c-.1-.1-.1-.2-.1-.4a4.5,4.5,0,0,0-.5-1,4.5,4.5,0,0,0-3.9-1.6h-.5c-1.8.1-5.2,1.2-8.3,1.8a62.2,62.2,0,0,1-9.5.9l-2.1-.2a2.7,2.7,0,0,1-1.4-.8,1,1,0,0,1-.4-.9,1.3,1.3,0,0,1,.9-1.3,6.6,6.6,0,0,1,1.5-.3,23.6,23.6,0,0,1,5.2,1.6,8.6,8.6,0,0,0,2.9.4,12.9,12.9,0,0,0,4.9-1.4,7.8,7.8,0,0,1,2.9-.6h1a3.9,3.9,0,0,0-2.8-1.1,6.7,6.7,0,0,0-2.8.8h-.1v-.3a1.2,1.2,0,0,1,.4-.8,3.1,3.1,0,0,1,.9-.7l-1.1-.4-2.4-.2h-.2a10.2,10.2,0,0,0-3.4.7,7.2,7.2,0,0,1-3.2.7h-1.1a8.6,8.6,0,0,0-3.4.6,2.2,2.2,0,0,0-1.3,2.1,2.4,2.4,0,0,0,1.4,2.1,7.6,7.6,0,0,0,4,.9h.1A96.1,96.1,0,0,0,527.7,24a29.9,29.9,0,0,1,5.1-.7,5.3,5.3,0,0,1,2.3.4,2.3,2.3,0,0,1,.9,1.9,2,2,0,0,1-.5,1.4,2.4,2.4,0,0,1-2.1.8c-1.3,0-2.7-.4-4.4-.6h-1.3c-2.6-.3-5.8-.5-7.6-.5h-.5a48.3,48.3,0,0,0-6.6.6c-2.7.4-5.1,1-5.9,1.2h0v2.5l-.7-1.1h0a7,7,0,0,1-.4,2.4,2.4,2.4,0,0,1-.3.7c0,.1,0,.1-.1.2l-.5,1-.5-.8a5.7,5.7,0,0,1-1.3,2.7l-.9.8a.1.1,0,0,1-.1.1l-.3.2-1,.6V35.9l-.6.7a2.2,2.2,0,0,1-1.4.6h-.5l-.8-.3.4-.7a.5.5,0,0,0,.2-.4,1.1,1.1,0,0,0,.2-.7h-.8a12.2,12.2,0,0,0-3.5,1.4,26.9,26.9,0,0,0-2.9,1.6l-1.9,1.1a7.3,7.3,0,0,1-2.8,1h-.9a1.2,1.2,0,0,1-1-.4,2.1,2.1,0,0,1-1.2-.3l-1-.7L482,38a2.5,2.5,0,0,0-1,1.8v.8h.2a15.7,15.7,0,0,0,3.2-.3h0l.3.2h0c0,.1-.1.2-.2.3a15,15,0,0,1-3.3.3H481a2.6,2.6,0,0,0,.5,1.4,1.1,1.1,0,0,0,.9.6h0a13.5,13.5,0,0,1,2.7-1.5h.1l.3.2h0a.2.2,0,0,1-.2.2H485l-.7.4-.7.4a.1.1,0,0,0-.1.1v.2c.3.3.5.8.7,1a.7.7,0,0,0,.6.4,1.3,1.3,0,0,0,1-.7,1.6,1.6,0,0,1,1.2-.6h1.8c.2,0,.4-.2.6-.4l.3-.3h.4l.9.2,1.4.2h.1l-.4-.5a.4.4,0,0,1-.1-.3v-.2h.7a4.4,4.4,0,0,0,2.6.7h.7l-.5-.4c-.1-.1-.2-.2-.2-.3s.1-.1.1-.2h2.8c.4,0,.9,0,1.1-.2l-.7-.8a.2.2,0,0,1-.2-.2.3.3,0,0,1,.1-.2h1.3l1.6.2a2,2,0,0,0,1.1-.3l-.5-.3a.4.4,0,0,1-.1-.3h0l.2-.2h.8a3.4,3.4,0,0,0,1.5-.3l-.9-1.1.4-.2.4-.2,1.4-.3a28.1,28.1,0,0,0,4.2-1.9c3.1-1.7,6.2-3.8,9.2-4.5a8.3,8.3,0,0,1,2.2-.3,6.2,6.2,0,0,1,2.1.3,4.6,4.6,0,0,1,1.9,1.2,19.9,19.9,0,0,1,2,2.1l1.5,1.5h.2l.2.2.6.4a5.6,5.6,0,0,0,1.6.7c0-.2-.2-1.3.3-1.1s.3.3.5.5a1.5,1.5,0,0,0,.6.5,2.1,2.1,0,0,0,1.1.5h.4l-.4-.5a.3.3,0,0,1-.1-.2c0-.1,0-.1.1-.2h1.3l1.8-.2A8,8,0,0,0,539,36h1.1l.4.5a.8.8,0,0,0,.2.5,5,5,0,0,1,.7,2.5V40a3.1,3.1,0,0,1-.4,1.5,1.7,1.7,0,0,1-1.2.8h-.7l-1.1-.2h-.2a.8.8,0,0,0-.4.7c0,.2.1.5.1.6h.1a.3.3,0,0,1,.1.2,1.1,1.1,0,0,0,.7.3h.1a2,2,0,0,0,.8-.4c.2-.2.4-.4.4-.5h.1l.5-.7h.3a.2.2,0,0,1,.2.2h-.1a.3.3,0,0,0-.1.2.2.2,0,0,0-.2.2l-.4.4h0a.4.4,0,0,0,.1.3l.4.4c.1.1.2.3.4.3s.7-.3.9-.5l.4-.6a3.4,3.4,0,0,0,.1-1v-.6h0c0-.1.1-.1.2-.1h.3v1c0,.3,0,.6-.1.7h1.9a.7.7,0,0,0,.3-.6h0c0-.3,0-.5-.1-.6ZM526,38.9a1.6,1.6,0,0,1-.9-.3A2.4,2.4,0,0,1,524,37a3.1,3.1,0,0,1,.9-1.9l1.1-1-1.5-1.5a5.4,5.4,0,0,0-1.6-1,2.3,2.3,0,0,0-1.8.3l-1.1.6a6.3,6.3,0,0,0-2.3,3.1l.2-.2.7-.4h.4v.7a4.3,4.3,0,0,0-.1.5,4.3,4.3,0,0,0-.2,1.2l.6-.7h.4V37a3,3,0,0,0,.2,1.6c.2.4.4.8.1,1.2a2.2,2.2,0,0,1-.9,1,1.1,1.1,0,0,1-.8.3,2.7,2.7,0,0,0-1.2.2c-.5.1-.9.5-1.5.7H515a2.2,2.2,0,0,1-1.7-.7.9.9,0,0,1-.4-.7,3.9,3.9,0,0,1,.6-1.3h-1.7a.8.8,0,0,0-.5.2h-.1a.5.5,0,0,0-.2.4,2.5,2.5,0,0,0-.1,1c-.1.4-.3.8-.4,1.1v.2a1.3,1.3,0,0,0,.4,1,4.9,4.9,0,0,0,2.4,1.5,8,8,0,0,0,2.1.4h.2l2-.5,2.2-.3-.7-.4H519c-.1,0-.1-.1-.1-.2h0c0-.1.1-.1.1-.2h2.8a2.8,2.8,0,0,0,1.2-.5h-.5l-.4-.2a.1.1,0,0,1-.1-.1c-.1,0-.1-.1-.1-.2h0c0-.1,0-.1.1-.1a.1.1,0,0,1,.1-.1h.7l1-.3a2.7,2.7,0,0,0,1.2-.7h-.3c-.2-.1-.5-.2-.6-.4H524a.3.3,0,0,1-.1-.2h0c.1-.1.1-.1.1-.2h.9l1.1-.4c.2,0,.3-.1.3-.2H526Zm-18.4,3.6c-.2.2-.2.4-.3.5h.1l.9-.4v-.2h0c.1-.1.1-.1.1-.2A1.2,1.2,0,0,0,507.6,42.5Zm2.9,1.3-.2.2c0,.1-.1.1-.1.2h-.1v.2a.8.8,0,0,0,.1.4,1.5,1.5,0,0,0,.6.4h.5a.6.6,0,0,0,.6-.3l.2-.4a7.1,7.1,0,0,1-1.4-1Zm-.1-.5a2.1,2.1,0,0,1-.4-1.2v-.2h-1c0,.1-.1.2-.2.4s-.1.4-.1.6,0,.1.1.2.1.1.2.2l.9.2h.5Zm-.7,1.4a1.7,1.7,0,0,0-.4,1.1h.1a1,1,0,0,1,.4-.5.6.6,0,0,1-.1-.4ZM489.4,21.2a3.1,3.1,0,0,0,1.3.6,3,3,0,0,0,1.3.2,19.7,19.7,0,0,0,2.4-.3,19.7,19.7,0,0,1,2.4-.3,3.4,3.4,0,0,1,2.2.7,3.7,3.7,0,0,0-2.2-1,9.6,9.6,0,0,0-2.4,0H492a3.3,3.3,0,0,1-1.8-.8h-.1a.5.5,0,0,0-.8.1.6.6,0,0,0,.1.9Z" transform="translate(-4 -0.9)" fill="#fff"/><path d="M491.5,104.4c.2-.7.3-1.4.5-2.1h0c1.3.8,3.5,1.2,6.1,1.6s7.3,1.3,10,3l-2.6-.9a18.3,18.3,0,0,0-7.1-.8A19.6,19.6,0,0,1,491.5,104.4Zm39.8,1a27.8,27.8,0,0,1-7.3.7,23.1,23.1,0,0,0-7.3.6l-3.1.9,3.5-.6a24.1,24.1,0,0,1,7.5.2,25.3,25.3,0,0,0,7,.1Zm-16.8,1.5,2.6-.9a18.6,18.6,0,0,1,7.1-.8,19.6,19.6,0,0,0,6.9-.8c-.1-.7-.3-1.4-.4-2.1h0a19.8,19.8,0,0,1-6.1,1.6C521.2,104.5,517.3,105.2,514.5,106.9Zm-15.9-.8a27.1,27.1,0,0,1-7.2-.7,16.2,16.2,0,0,0-.4,1.9,25.9,25.9,0,0,0,7.1-.1,23.4,23.4,0,0,1,7.4-.2l3.5.6-3.1-.9A23,23,0,0,0,498.6,106.1Zm-2.7-15.8-3.7,11.1c3.1,2,14.5,1.5,18.8,6.6V96.2C509.8,91.1,499,92.3,495.9,90.3Zm30.8,0c-3,2-13.9.8-15,5.9V108c4.3-5.1,15.6-4.6,18.7-6.6Z" transform="translate(-4 -0.9)" fill="#fff"/><path d="M476.2,60.8l.5.9a1.3,1.3,0,0,0,1,.6h0a6.1,6.1,0,0,0-.4,1.7v.5a3.7,3.7,0,0,1-.1,1.1l-.3.4a1.3,1.3,0,0,0-.4,1.3h0c.2.6.8.7,1.1.8h.4c.3.1.6.6.8.9l.3.3a3.2,3.2,0,0,0,1.6,1.3,1.4,1.4,0,0,0-.6,1.3l.3,1a1.1,1.1,0,0,0,1.1.9h.2l1-.2a1.1,1.1,0,0,0,.8-.8,6.2,6.2,0,0,0,1.6,1h.4a2.8,2.8,0,0,1,1.1.5.5.5,0,0,1,.2.4,1.4,1.4,0,0,0,1.1.8h.1a1.4,1.4,0,0,0,1.1-.8.5.5,0,0,1,.2-.4,2.8,2.8,0,0,1,1.1-.5h.4a4.3,4.3,0,0,0,1.7-1.2c.1.2.1.4.3.6l.7.4h1.2a1.3,1.3,0,0,0,1.1-1V71.6a1.1,1.1,0,0,0-.3-.8l-.2-.2a5.3,5.3,0,0,0,1.4-1.2l.3-.4a2.9,2.9,0,0,1,.7-.8h.4c.4-.1,1-.2,1.2-.8h0a1.3,1.3,0,0,0-.5-1.4c-.1-.1-.2-.2-.2-.3s-.2-.8-.2-1.2a.3.3,0,0,0,0-.4,3.7,3.7,0,0,0-.5-2h.1a1.2,1.2,0,0,0,1.1-.7l.4-.9a1.4,1.4,0,0,0,0-.9.9.9,0,0,0-.6-.6l-.9-.4h-.5l-.7.2a3.4,3.4,0,0,0-.7-1.7l-.2-.3a2.2,2.2,0,0,1-.6-1v-.5a1.4,1.4,0,0,0-.4-1.3h0l-.6-.2-.8.2-.4.2h-.1l-1-.3h-.5l-1.2-.2h-.8c0-.2.1-.4.1-.6a1,1,0,0,0-.4-.7l-.8-.7a.9.9,0,0,0-.7-.3,1.1,1.1,0,0,0-.9.4l-.7.7a1.6,1.6,0,0,0-.2,1.2h-.5l-1.3.2-.4.2-1,.2h-.2l-.4-.2-.7-.2-.7.2h0a1.6,1.6,0,0,0-.4,1.4c0,.1.1.3.1.4a5.3,5.3,0,0,1-.6,1l-.3.3a4.4,4.4,0,0,0-.7,2,1.1,1.1,0,0,0-.8-.3h-.6l-.9.6a1,1,0,0,0-.5.6,1.4,1.4,0,0,0,.1.9" transform="translate(-4 -0.9)" fill="#fff"/><path d="M487.9,58.6a2.4,2.4,0,0,1,2.3,1.9h.3a2.3,2.3,0,0,1,2.2,1.7,2.3,2.3,0,0,1-1.1,2.7,2.2,2.2,0,0,1,.2,1.4,2.1,2.1,0,0,1-.9,1.5,2.4,2.4,0,0,1-1.4.5,3.1,3.1,0,0,1-1.6-.6,2.3,2.3,0,0,1-1.6.6,3.3,3.3,0,0,1-1.4-.4,2.3,2.3,0,0,1-.7-2.9,2.4,2.4,0,0,1-1-1,2.4,2.4,0,0,1,2.1-3.4h.3a1.7,1.7,0,0,1,.6-1.2,2.2,2.2,0,0,1,1.7-.7" transform="translate(-4 -0.9)" fill="#fff"/><path d="M488.2,58.6a2.3,2.3,0,0,1,2,1.9h.3a2.4,2.4,0,0,1,2.1,1.4,9,9,0,0,0,1.9-.8c1.8-.9,2-2.1,1-3.6a4.5,4.5,0,0,1-1-1.8c0-.5.2-.9,0-1.1h0c-.2-.1-.6.2-1.1.3a4.2,4.2,0,0,1-2-.3c-1.7-.5-2.8,0-3.1,2a6.9,6.9,0,0,0-.1,2.1m-.5-4.3a.3.3,0,0,0,.4,0l.6-1.1a.3.3,0,0,0,0-.4l-.8-.7c-.1-.1-.2,0-.3.1l-.7.7a.3.3,0,0,0,0,.4ZM481.4,61a7.8,7.8,0,0,0,1.8.8,2.3,2.3,0,0,1,2.1-1.3h.3a1.7,1.7,0,0,1,.6-1.2,2.1,2.1,0,0,1,1.5-.7,11.5,11.5,0,0,0-.2-2.1c-.3-2-1.4-2.5-3.1-2a5.9,5.9,0,0,1-2,.4c-.4-.1-.9-.5-1-.4s0,.7-.1,1.2-.7,1.3-1,1.7-.8,2.7,1.1,3.6m-4.4-.6.5.8c.1.2.2.2.4.1l1.1-.4c.2-.1.2-.2.1-.3l-.8-1c-.1-.1-.2-.2-.3-.1l-.9.5c-.1.1-.2.2-.1.4m19.8.4,1.2.3c.2.1.3,0,.4-.1l.4-1a.4.4,0,0,0-.1-.3l-1-.4a.2.2,0,0,0-.3.1l-.7,1.1c-.1.1,0,.2.1.3M482.7,71.2l-.3-.2-1.2.5c-.1,0-.2.1-.2.3l.2,1c0,.1.2.2.3.2l1-.2c.2-.1.2-.2.2-.3Zm15-7.2c-.1-1.7-.9-2.6-3-2.3a14.3,14.3,0,0,0-2,.5,2.2,2.2,0,0,1-1.1,2.6,2.2,2.2,0,0,1,.2,1.4,2.1,2.1,0,0,1-.7,1.3,11.6,11.6,0,0,0,1.3,1.5c1.4,1.5,2.6,1.2,3.7-.2s.8-1.2,1.4-1.4,1-.2,1-.4h0c.1-.2-.3-.5-.6-.9a5,5,0,0,1-.2-2.1m-13.5.9a2.4,2.4,0,0,1-1-1,2.5,2.5,0,0,1-.2-1.7l-1.9-.4c-2-.4-2.8.5-2.9,2.3a4.7,4.7,0,0,1-.2,2c-.3.4-.7.7-.7.9h0c.1.2.6.2,1.1.4a4.9,4.9,0,0,1,1.4,1.5c1,1.3,2.3,1.6,3.7.1a9.4,9.4,0,0,0,1.2-1.4,2.5,2.5,0,0,1-.5-2.7m10.6,6.4-1.2-.4a.3.3,0,0,0-.3.3v1.2c0,.2.1.3.2.3h1c.2,0,.3-.1.3-.2v-1c0-.2-.1-.3-.2-.3m-3-1.8c.9,1.8.3,2.9-1.3,3.5a3.9,3.9,0,0,0-1.9.8c-.3.4-.4.9-.6.9s-.4-.5-.7-.9a3.9,3.9,0,0,0-1.9-.8c-1.6-.6-2.2-1.7-1.3-3.5l1-1.6a2.7,2.7,0,0,0,1.2.3,2.3,2.3,0,0,0,1.6-.6,3.1,3.1,0,0,0,1.6.6,2.1,2.1,0,0,0,1.2-.4,9.4,9.4,0,0,1,1.1,1.7" transform="translate(-4 -0.9)" fill="#b4121b"/><path d="M484.8,64.2h.4c.1,0,.2,0,.2.1s.1.3,0,.3h0l-.3.3a1.4,1.4,0,0,0,.4,2,1.4,1.4,0,0,0,2-.3l.2-.3h0c0-.1.1-.1.1-.2s.3,0,.4.2h0c0,.1.1.2.1.3a1.6,1.6,0,0,0,2.1.3,1.4,1.4,0,0,0,.3-2l-.3-.3h0c0-.1-.1-.1-.1-.2a.3.3,0,0,1,.3-.3h.3a1.6,1.6,0,0,0,1-1.9,1.5,1.5,0,0,0-1.9-.9l-.3.2h-.2c-.2-.1-.2-.2-.2-.3h0v-.4a1.4,1.4,0,0,0-1.4-1.4,1.5,1.5,0,0,0-1.5,1.4c0,.2,0,.3.1.4h0c0,.1,0,.2-.1.2s-.2.2-.3.1h0l-.3-.2a1.6,1.6,0,0,0-1.9,1,1.5,1.5,0,0,0,.9,1.8" transform="translate(-4 -0.9)" fill="#b4121b"/><path d="M486.7,63.6a1.1,1.1,0,0,1,1.1-1.1,1.2,1.2,0,0,1,1.2,1.1,1.2,1.2,0,0,1-1.2,1.2,1.1,1.1,0,0,1-1.1-1.2" transform="translate(-4 -0.9)" fill="#fff"/><path d="M546.4,60.8l-.5.9a1.3,1.3,0,0,1-1,.6h0a3.9,3.9,0,0,1,.4,1.7v.5a3.7,3.7,0,0,0,.1,1.1l.3.4a1.3,1.3,0,0,1,.4,1.3h0c-.2.6-.8.7-1.1.8h-.4c-.3.1-.6.6-.8.9l-.3.3a3.2,3.2,0,0,1-1.6,1.3,1.4,1.4,0,0,1,.6,1.3l-.2,1a1.2,1.2,0,0,1-1.1.9h-.3l-1-.2a1.1,1.1,0,0,1-.8-.8,4.9,4.9,0,0,1-1.6,1h-.4a2.8,2.8,0,0,0-1.1.5l-.2.4a1.4,1.4,0,0,1-1.1.8h0a1.4,1.4,0,0,1-1.2-.8.5.5,0,0,0-.2-.4,2.8,2.8,0,0,0-1.1-.5h-.4a4.3,4.3,0,0,1-1.7-1.2,1.4,1.4,0,0,1-.2.6,2,2,0,0,1-.8.4H528a1.3,1.3,0,0,1-1.2-1V71.6a1.1,1.1,0,0,1,.3-.8l.2-.2a7.5,7.5,0,0,1-1.4-1.2l-.2-.4a3,3,0,0,0-.8-.8h-.4c-.4-.1-1-.2-1.2-.8h0a1.3,1.3,0,0,1,.5-1.4c.1-.1.2-.2.2-.3s.2-.8.2-1.2V64a3.7,3.7,0,0,1,.5-2h-.1a1.2,1.2,0,0,1-1.1-.7l-.4-.9a1.4,1.4,0,0,1,0-.9.9.9,0,0,1,.6-.6l.9-.4h.5l.7.2a4.7,4.7,0,0,1,.7-1.7c.1-.1.2-.2.2-.3a2.2,2.2,0,0,0,.6-1v-.5a1.4,1.4,0,0,1,.4-1.3h0l.6-.2.8.2.4.2h.1l1.1-.3h.4l1.3-.2h.8a1.4,1.4,0,0,1-.2-.6,1.6,1.6,0,0,1,.4-.7l.8-.7a1.1,1.1,0,0,1,.7-.3,1,1,0,0,1,.9.4l.7.7a1.3,1.3,0,0,1,.2,1.2h.5l1.3.2.4.2,1.1.2h.1l.4-.2.8-.2.6.2h0a1.6,1.6,0,0,1,.4,1.4v.4a2.4,2.4,0,0,0,.5,1l.3.3a3.5,3.5,0,0,1,.7,2,1.3,1.3,0,0,1,.8-.3h.6l.9.6a1,1,0,0,1,.5.6,1.4,1.4,0,0,1-.1.9" transform="translate(-4 -0.9)" fill="#fff"/><path d="M534.8,58.6a2.3,2.3,0,0,0-2.3,1.9h-.4a2.3,2.3,0,0,0-2.2,1.7,2.3,2.3,0,0,0,1.1,2.7,2.2,2.2,0,0,0-.2,1.4,2.1,2.1,0,0,0,.9,1.5,2.4,2.4,0,0,0,1.4.5,2.8,2.8,0,0,0,1.6-.6,2.3,2.3,0,0,0,1.6.6,3.3,3.3,0,0,0,1.4-.4,2.3,2.3,0,0,0,.7-2.9,2.4,2.4,0,0,0,1-1,2.4,2.4,0,0,0-2.1-3.4h-.2a1.9,1.9,0,0,0-.7-1.2,2,2,0,0,0-1.6-.7" transform="translate(-4 -0.9)" fill="#fff"/><path d="M534.5,58.6a11.5,11.5,0,0,0-.2-2.1c-.3-2-1.4-2.5-3.1-2a4.2,4.2,0,0,1-2,.3c-.5-.1-.9-.4-1.1-.3h0c-.1.2.1.6,0,1.1a4.5,4.5,0,0,1-1,1.8c-.9,1.5-.8,2.7,1,3.6a12.1,12.1,0,0,0,1.9.8,2.4,2.4,0,0,1,2.1-1.4h.4a2.3,2.3,0,0,1,2-1.9m1.2-5.3a.3.3,0,0,0,0-.4l-.7-.7c-.1-.1-.2-.2-.3-.1l-.8.7a.3.3,0,0,0,0,.4l.7,1.1c0,.1.2.1.3,0Zm5.6,7.7c1.8-.9,1.9-2.1,1-3.6a4.8,4.8,0,0,1-1-1.7c-.1-.5.1-1,0-1.2s-.6.3-1.1.4a5.9,5.9,0,0,1-2-.4c-1.7-.5-2.8,0-3.1,2a11.5,11.5,0,0,0-.2,2.1,2.1,2.1,0,0,1,1.5.7,1.9,1.9,0,0,1,.7,1.2h.2a2.3,2.3,0,0,1,2.1,1.3,12.1,12.1,0,0,0,1.9-.8m4.3-.6c.1-.2.1-.3-.1-.4l-.8-.5c-.2-.1-.3,0-.4.1l-.8,1c-.1.1,0,.2.1.3l1.2.4c.1.1.2.1.3-.1l.5-.8m-19.8.4c.1-.1.2-.2.1-.3l-.7-1.1a.2.2,0,0,0-.3-.1l-.9.4c-.2.1-.2.2-.2.3l.4,1c.1.1.2.2.4.1l1.2-.3m14.1,11.7.2.3,1,.2c.1,0,.3-.1.3-.2l.2-1c0-.2,0-.3-.2-.3l-1.1-.5c-.2,0-.3.1-.3.2ZM525,64a7.6,7.6,0,0,1-.3,2.1c-.2.4-.7.7-.6.9h0c0,.2.6.2,1,.4s1.1,1,1.4,1.4,2.3,1.7,3.7.2a6.9,6.9,0,0,0,1.3-1.5,2.1,2.1,0,0,1-.7-1.3,2.2,2.2,0,0,1,.2-1.4,2.2,2.2,0,0,1-1.1-2.6,14.3,14.3,0,0,0-2-.5c-2.1-.3-2.9.6-2.9,2.3m13.4.9a2.5,2.5,0,0,1-.5,2.7,9.4,9.4,0,0,0,1.2,1.4c1.5,1.5,2.7,1.2,3.7-.1s.8-1.2,1.4-1.5,1-.2,1.1-.4h0c.1-.2-.4-.5-.6-.9a3.6,3.6,0,0,1-.3-2c-.1-1.8-.9-2.7-2.9-2.3l-1.9.4a2.5,2.5,0,0,1-.2,1.7,2.4,2.4,0,0,1-1,1m-10.6,6.4c-.1,0-.2.1-.2.3v1c0,.1.1.2.3.2h1c.1,0,.2-.1.2-.3V71.2a.3.3,0,0,0-.3-.3l-1.2.4m3.1-1.8a8.2,8.2,0,0,1,1-1.7,2.5,2.5,0,0,0,1.2.4,3.1,3.1,0,0,0,1.6-.6,2.3,2.3,0,0,0,1.6.6,2.7,2.7,0,0,0,1.2-.3,7.9,7.9,0,0,1,1,1.6c.9,1.8.3,2.9-1.3,3.5a3.3,3.3,0,0,0-1.8.8c-.4.4-.5.9-.7.9s-.4-.5-.7-.9a3.9,3.9,0,0,0-1.9-.8c-1.6-.6-2.2-1.7-1.2-3.5" transform="translate(-4 -0.9)" fill="#b4121b"/><path d="M537.8,64.2h-.4c-.1,0-.2,0-.2.1s-.1.3,0,.3h0l.3.3a1.5,1.5,0,0,1-.3,2,1.5,1.5,0,0,1-2.1-.3l-.2-.3h0c0-.1-.1-.1-.1-.2s-.3,0-.3.2h0l-.2.3a1.6,1.6,0,0,1-2.1.3,1.4,1.4,0,0,1-.3-2l.3-.3h0c0-.1.1-.1.1-.2a.3.3,0,0,0-.3-.3h-.3a1.4,1.4,0,0,1-.9-1.9,1.4,1.4,0,0,1,1.8-.9l.3.2h.3c.1-.1.2-.2.1-.3h0v-.4a1.4,1.4,0,0,1,1.5-1.4,1.4,1.4,0,0,1,1.4,1.4v.4h0a.1.1,0,0,0,0,.2c.1.1.2.2.3.1h0l.4-.2a1.5,1.5,0,0,1,1.8,1,1.4,1.4,0,0,1-.9,1.8" transform="translate(-4 -0.9)" fill="#b4121b"/><path d="M536,63.6a1.2,1.2,0,0,0-1.2-1.1,1.1,1.1,0,0,0-1.1,1.1,1.1,1.1,0,0,0,1.1,1.2,1.2,1.2,0,0,0,1.2-1.2" transform="translate(-4 -0.9)" fill="#fff"/><path d="M301.6,38.4c0-4.7,1.4-8.9,4.7-11.6a15.4,15.4,0,0,1,9.4-3.1,14.9,14.9,0,0,1,8.6,2.6s3.1,1.9,3.1,5.2a2.9,2.9,0,0,1-2.9,3,2.7,2.7,0,0,1-2.7-3,7.4,7.4,0,0,0-.4-3.2c-1.3-2.7-5.1-2.6-5.1-2.6-5.6,0-8.1,5.6-8.1,12.5,0,9.2,5.1,12.5,9.4,12.5,0,0,4.8.1,9-5.4l1.7,1.1A14.5,14.5,0,0,1,316.2,53,14.6,14.6,0,0,1,301.6,38.4Zm11.6,28.9H302v1.5l4.1,1.1-6.6,18.6-6.9-18.6,3.9-1V67.2H283.6v1.6l3.4.9,9.5,23.4h3l9.9-23.3,3.8-.9Zm-81.6-7.6h0l4.7-1.2V56.6H223.4v1.6l5.1,1.4V83.3s.4,7.9-10.1,7.9S208,84.3,208,83.3V59.6l5.2-1.4V56.6H197.6v1.6l5,1.4V82.9s-.8,11,14.9,11,14.1-10.4,14.1-10.4Zm207.3,9.2,4.6,1.2-6.8,18.1-7.4-18.3,3.8-1V67.3H420.5V69l3.5.9,10.1,25c-.7,1.2-1.3,2.5-1.9,3.7s-2.4,3.9-4.3,4-2.2-1.9-3.5-2.6-4.7,1.9-3.1,3.9a4.8,4.8,0,0,0,3.5,1.8,9.7,9.7,0,0,0,4.1-.8,6.4,6.4,0,0,0,1.9-1.3,11.3,11.3,0,0,0,2.8-3.7c1.2-2.3,2.4-4.5,3.4-6.9l2.5-6.1c1.1-2.5,2.1-5,3.2-7.4l2.7-6.4a28.8,28.8,0,0,1,1.3-3.1h0l3.7-1V67.2H438.9ZM232,40l-1.4-.5h-.2c-3.9,6.7-11.6,10.8-16.7,10.8,0,0-5.3.3-5.3-4.5h0v-30l5.1-1.4V13H197.5v1.5l4.8,1.3V49.2l-4.8,1.3v1.9h29.9Zm38.1,9.1-4.8,1.5v1.8h15.2V50.6l-4.8-1.5V31.4h0a30.7,30.7,0,0,1,4.2-2.8c1.9-1,4.4-2.1,6.6-1.8a4.9,4.9,0,0,1,3,1.9,8.1,8.1,0,0,1,1.3,4.8V49h0L286,50.6v1.8h15.4V50.6l-4.7-1.5V31.3a6.3,6.3,0,0,0-2.3-5.1,9.9,9.9,0,0,0-5.7-2.3,16.7,16.7,0,0,0-10.4,2.8l-2.6,1.9V24.4h-2L265,26.6v1.7h5.1Zm20.7-.1h0ZM258.6,90h0Zm5.3.1V73.8a5.9,5.9,0,0,0-2.1-4.7,9.2,9.2,0,0,0-5.2-2.1,14.9,14.9,0,0,0-9.6,2.6l-2.4,1.7V67.4h-1.8l-7.9,2.1V71h4.6V90.1l-4.4,1.4v1.6h14V91.5l-4.4-1.4V73.8h0a26.5,26.5,0,0,1,3.9-2.6c1.7-.9,4-1.9,6-1.6a4.2,4.2,0,0,1,2.8,1.7,7.5,7.5,0,0,1,1.2,4.4V90h0l-4.4,1.4v1.6h14.1V91.5ZM375.4,34.8c-4.3-.8-7.8-2-7.8-4.9s4.2-3.7,5.9-3.7a11,11,0,0,1,10.1,7h1.8l-1.8-8.8H382l-.6,1.9a14.1,14.1,0,0,0-7.7-2.5c-7,0-11.1,4-11.1,8.5s5.8,6.3,10.1,7.6,9.8,1.4,9.8,5.6-6.9,5-6.9,5a12.3,12.3,0,0,1-11.8-8.4h-1.9l1.8,10.3h1.9l.7-2.4a20.9,20.9,0,0,0,9.5,2.8c7,0,11.7-4.6,11.7-9.4C387.5,36.8,379.9,35.6,375.4,34.8Zm39,56.6a4.1,4.1,0,0,1-4-3.5,18.1,18.1,0,0,1-.1-3.4V68.9h7.6V67.3h-7.6V57.4h-2.4s.1,4.4-2.1,7.5-5,2.5-5,2.5v1.7h4.3V84.9c0,1.2-.1,2.4-.1,3.2,0,3.5,3.4,5.5,7.2,5.5s6.9-2.1,8.2-3.5L419.1,89C417.6,90.2,416.3,91.4,414.4,91.4ZM392.1,43.3v3.5c0,3.8,3.7,6,7.8,6a10.8,10.8,0,0,0,8.5-3.4,9.1,9.1,0,0,1-1.1-1.6c-1.6,1.4-3.1,2.6-5.1,2.6a4.3,4.3,0,0,1-4.3-3.8,21.2,21.2,0,0,1-.1-3.7V26.2h8.3V24.3h-8.3V13.6h-2.6s.1,4.8-2.3,8.1-5.3,2.8-5.3,2.8v1.7h4.5Zm15-4.9c0-4.9,2-9.4,5.6-12a13.6,13.6,0,0,1,8.3-2.5,12,12,0,0,1,12.5,11.8H413.1s-2.1,14.5,9.4,14.5a10,10,0,0,0,8.9-5.2l1.8.9c-1.5,4.1-6.3,6.9-11.5,6.9A14.6,14.6,0,0,1,407.1,38.4Zm6.2-5.1h14.1c-.2-4.4-3-7.3-6.9-7.3S413.3,27.9,413.3,33.3Zm-95,44.5s-1.9,13.4,8.6,13.4a9.3,9.3,0,0,0,8.3-4.8l1.6.8c-1.3,3.8-5.8,6.4-10.6,6.4a13.4,13.4,0,0,1-13.4-13.3,13.7,13.7,0,0,1,5.1-11.1,12.6,12.6,0,0,1,7.6-2.3,11.1,11.1,0,0,1,11.6,10.9Zm.2-2.2h13c-.2-4.1-2.8-6.7-6.4-6.7S318.5,70.6,318.5,75.6ZM456.7,24h-.1c-.1,0-.1,0-.1-.1-5.9-1.2-10.4,3.6-11.4,4.7V24.4h-2.3l-8.4,2.2v1.7h5.1V49.4l-4.9,1.3v1.7h15.7V50.7l-5.2-1.4V31.2c.3-.3,3-3.1,5.2-3.1s2.7,1.6,5.3,1.9h.3a3.1,3.1,0,0,0,3.1-3.1A3,3,0,0,0,456.7,24ZM359.4,67h-.1c-5.4-1.2-9.6,3.2-10.5,4.3V67.4h-2.1L339,69.5V71h4.6V90.4l-4.5,1.2v1.5h14.5V91.6l-4.8-1.3V73.7c.3-.4,2.8-2.9,4.8-2.9s2.5,1.5,4.8,1.7h.3a2.7,2.7,0,0,0,2.8-2.8A2.8,2.8,0,0,0,359.4,67Zm-79.6.3-9.6,1v2.2h4.5V90.1l-4.6,1.4v1.6h14.1V91.5l-4.4-1.4Zm-2.2-9.1a3.3,3.3,0,1,0,0,6.5,3.3,3.3,0,0,0,0-6.5Zm119.8,9.1-9.5,1v2.2h4.4V90.1l-4.5,1.4v1.6h14V91.5l-4.4-1.4Zm-5.6-5.8a3.2,3.2,0,1,0,3.2-3.3A3.2,3.2,0,0,0,391.8,61.5ZM349.9,36.1V30.5c0-4.2-4.5-4.3-6.4-4.3s-4.5.1-5.9,1.9-.6,2.6-.5,3.4a2.7,2.7,0,0,1-2.7,3,2.9,2.9,0,0,1-2.9-3c0-3.3,3-5.2,3-5.2,2.4-1.6,6.4-2.4,9.7-2.4a14.5,14.5,0,0,1,9,2.6c1.3,1,2.3,2.7,2.3,6.2V49.1l5.6,1.5.3,1.8h-8.2l-3.3-3.6s-4.7,4-10.7,4-8.7-3.3-8.7-6.2c0,0-.9-6.1,7.9-8.7l4.4-1.1A38.7,38.7,0,0,1,349.9,36.1Zm-.1,2a31.8,31.8,0,0,0-9.3,1.8c-2.9,1.3-4.4,3.4-4.3,6.1s1.8,4.2,5.8,3.9,7.8-3.7,7.8-3.7Zm25.1,38.7c-3.9-.7-7.1-1.8-7.1-4.4s3.8-3.5,5.4-3.5a10.3,10.3,0,0,1,9.4,6.4h1.6l-1.6-8.1h-1.5l-.5,1.8a13.2,13.2,0,0,0-7.2-2.3c-6.5,0-10.2,3.7-10.2,7.9s5.3,5.8,9.3,7,9.1,1.3,9.1,5.1-6.4,4.6-6.4,4.6a11.2,11.2,0,0,1-10.9-7.7h-1.8l1.7,9.5h1.7l.6-2.2a19.7,19.7,0,0,0,8.9,2.6c6.5,0,10.8-4.2,10.8-8.7C386.2,78.7,379.1,77.6,374.9,76.8ZM252.6,36.1V30.5c0-4.2-4.6-4.3-6.5-4.3s-4.5.1-5.9,1.9-.5,2.6-.5,3.4a2.7,2.7,0,0,1-2.7,3,2.9,2.9,0,0,1-2.9-3c0-3.3,3.1-5.2,3.1-5.2,2.3-1.6,6.3-2.4,9.6-2.4a14.5,14.5,0,0,1,9,2.6c1.3,1,2.3,2.7,2.3,6.2V49.1l5.3,1.4v1.9h-7.6l-3.3-3.6s-4.7,4-10.7,4-8.6-3.3-8.6-6.2c0,0-1-6.1,7.8-8.7l4.4-1.1A38.7,38.7,0,0,1,252.6,36.1Zm0,2s-5.6.2-9.4,1.8-4.4,3.4-4.3,6.1,1.8,4.2,5.8,3.9,7.9-3.7,7.9-3.7Z" transform="translate(-4 -0.9)" fill="#231f20"/><path d="M546.3,86.6a29.7,29.7,0,0,1-8.3,1,31.3,31.3,0,0,1-7.7-.8l-4-1.3a50.5,50.5,0,0,0-6-2.3,34.3,34.3,0,0,0-9-1.1,35.9,35.9,0,0,0-8.2.9,36.2,36.2,0,0,0-4.3,1.4,43.7,43.7,0,0,1-5.8,2.2,35.7,35.7,0,0,1-15.9.2l-3.8-1.2,1.4,2.9,1,.3a37.6,37.6,0,0,0,17.2.2,36.2,36.2,0,0,0,4.3-1.4,43.7,43.7,0,0,1,5.8-2.1,29.7,29.7,0,0,1,8.3-1,31.3,31.3,0,0,1,7.7.8,23.4,23.4,0,0,1,4,1.3,51.1,51.1,0,0,0,6,2.2,30.5,30.5,0,0,0,9,1.1,31,31,0,0,0,8.2-.9l1.8-.5c.5-1,.9-2,1.4-2.9Z" transform="translate(-4 -0.9)" fill="#fff"/><path d="M538,83a30.6,30.6,0,0,1-7.7-.9,26.7,26.7,0,0,1-4-1.3,51.1,51.1,0,0,0-6-2.2,30.5,30.5,0,0,0-9-1.1,31,31,0,0,0-8.2.9,36.2,36.2,0,0,0-4.3,1.4,33.1,33.1,0,0,1-5.8,2.1,32.2,32.2,0,0,1-15.9.2,24.6,24.6,0,0,1-4.1-1.3l-1.9-.8c.3,1,.7,2,1.1,3l3.5,1.2a34.9,34.9,0,0,0,9,1.1,35.9,35.9,0,0,0,8.2-.9,36.2,36.2,0,0,0,4.3-1.4,43.7,43.7,0,0,1,5.8-2.2,29.7,29.7,0,0,1,8.3-1,31.3,31.3,0,0,1,7.7.8,37.3,37.3,0,0,1,4,1.4c1.8.7,3.7,1.5,6,2.2a34.3,34.3,0,0,0,9,1.1,35.9,35.9,0,0,0,8.2-.9,36.2,36.2,0,0,0,4.3-1.4l1.1-3a36.5,36.5,0,0,1-5.3,1.9A29.2,29.2,0,0,1,538,83Z" transform="translate(-4 -0.9)" fill="#fff"/><path d="M470.3,77.8a48,48,0,0,0,5.4,1.9,31,31,0,0,0,9,1.1,36.6,36.6,0,0,0,8.2-.8,24.1,24.1,0,0,0,4.3-1.5c1.9-.7,3.6-1.5,5.8-2.1a29.7,29.7,0,0,1,8.3-1,31.3,31.3,0,0,1,7.7.8l4,1.3a37.8,37.8,0,0,0,6,2.2,30.5,30.5,0,0,0,9,1.1,36.6,36.6,0,0,0,8.2-.8,24.1,24.1,0,0,0,4.3-1.5l1.8-.7.9-2.8-1.1.4c-1.9.7-3.6,1.5-5.8,2.1a29.7,29.7,0,0,1-8.3,1,31.3,31.3,0,0,1-7.7-.8l-4-1.3a37.8,37.8,0,0,0-6-2.2,30.5,30.5,0,0,0-9-1.1,31,31,0,0,0-8.2.9,36.2,36.2,0,0,0-4.3,1.4c-1.9.7-3.6,1.5-5.8,2.1a35.7,35.7,0,0,1-15.9.2L473,76.4,469.5,75C469.7,75.9,470,76.8,470.3,77.8Z" transform="translate(-4 -0.9)" fill="#fff"/><rect x="462.8" y="47.1" width="89.1" height="1.16" fill="#fff"/><rect x="166.3" width="1.3" height="104.34" fill="#6a747c"/><path d="M4,16.5H6.6V49.9H26.9v2.5H4Z" transform="translate(-4 -0.9)" fill="#6a747c"/><path d="M30.1,18.9h3.4v3.5H30.1Zm.5,8.7H33V52.4H30.6Z" transform="translate(-4 -0.9)" fill="#6a747c"/><path d="M38.9,16.5h2.4V32a18.3,18.3,0,0,1,1.3-1.6,5.9,5.9,0,0,1,1.8-1.7,8.3,8.3,0,0,1,2.5-1.2,12.3,12.3,0,0,1,3.5-.5,11.2,11.2,0,0,1,5,1,9.1,9.1,0,0,1,3.4,2.7,11.9,11.9,0,0,1,2.1,4.2,21.1,21.1,0,0,1,.7,5.2,13.8,13.8,0,0,1-1.1,5.5,10.9,10.9,0,0,1-2.9,4,11.6,11.6,0,0,1-4.3,2.5,16.1,16.1,0,0,1-5.4.9,27.6,27.6,0,0,1-5.1-.5,15.3,15.3,0,0,1-3.9-1.1Zm2.4,33.3,2.2.6a25.1,25.1,0,0,0,4.4.3,15.6,15.6,0,0,0,4.4-.6,11,11,0,0,0,3.5-2,8.9,8.9,0,0,0,2.3-3.4A11.3,11.3,0,0,0,59,40a18.4,18.4,0,0,0-.5-4.1A8.8,8.8,0,0,0,57,32.5a6.3,6.3,0,0,0-2.8-2.3,8.2,8.2,0,0,0-4-.9,7.4,7.4,0,0,0-4,1,7.8,7.8,0,0,0-2.7,2.4,9.9,9.9,0,0,0-1.7,3.2,13.9,13.9,0,0,0-.5,3.3Z" transform="translate(-4 -0.9)" fill="#6a747c"/><path d="M66.2,32.8V28.7a4.5,4.5,0,0,0-.1-1.1h2.3a4.9,4.9,0,0,0,.1,1.2v4.3a9.4,9.4,0,0,1,1.2-1.8,8.5,8.5,0,0,1,1.9-1.9A9.2,9.2,0,0,1,74.2,28a9.5,9.5,0,0,1,3.5-.6,6,6,0,0,1,2,.3L79,30.1c-.2-.2-.5-.2-.9-.3h-.9a7.8,7.8,0,0,0-3.5.8A11.8,11.8,0,0,0,71,32.9a10.9,10.9,0,0,0-1.7,3.2,11.5,11.5,0,0,0-.7,3.6V52.4H66.2Z" transform="translate(-4 -0.9)" fill="#6a747c"/><path d="M99.5,52.4V51.3c0-.4-.1-.8-.1-1.3V48.2a9.8,9.8,0,0,1-2.1,2.4A10,10,0,0,1,94.9,52a12.1,12.1,0,0,1-2.5.8l-2.2.2a16.3,16.3,0,0,1-3.1-.3,6.5,6.5,0,0,1-2.8-1.2,6.1,6.1,0,0,1-2-2.2,8.1,8.1,0,0,1-.8-3.7,9.2,9.2,0,0,1,.6-3.3A6.7,6.7,0,0,1,84,39.5a10.2,10.2,0,0,1,3.3-1.8,17.5,17.5,0,0,1,4.9-.7l4.1.2,3,.4V36.2a10.6,10.6,0,0,0-.5-3.4,4.8,4.8,0,0,0-1.5-2.2A5.5,5.5,0,0,0,95,29.5a15.8,15.8,0,0,0-3.2-.3,11,11,0,0,0-4.9.9,13.7,13.7,0,0,0-2.8,1.7l-1.3-1.7a14.8,14.8,0,0,1,3.3-2A12.2,12.2,0,0,1,91.7,27c3.2,0,5.7.7,7.4,2s2.6,3.7,2.6,6.8V49.2a9.1,9.1,0,0,0,.1,1.7,7.6,7.6,0,0,0,.1,1.5Zm-.2-12.7a17,17,0,0,0-2.8-.4,26.9,26.9,0,0,0-4.3-.2,11,11,0,0,0-4.4.7,6.3,6.3,0,0,0-2.4,1.6,5.1,5.1,0,0,0-1.1,2.2,15,15,0,0,0-.2,2,4.6,4.6,0,0,0,1.8,4,8.1,8.1,0,0,0,4.6,1.2,9.7,9.7,0,0,0,3.4-.6,9,9,0,0,0,2.8-1.8A7.2,7.2,0,0,0,98.6,46a5.5,5.5,0,0,0,.7-2.8Z" transform="translate(-4 -0.9)" fill="#6a747c"/><path d="M107.6,32.8v-3c0-.4-.1-.7-.1-1.1a4.5,4.5,0,0,0-.1-1.1h2.3c0,.4.1.8.1,1.2v1.1a6.1,6.1,0,0,1,.1,1.4v1.8a8.7,8.7,0,0,1,1.1-1.8,8.5,8.5,0,0,1,1.9-1.9,9.2,9.2,0,0,1,2.6-1.4,9.5,9.5,0,0,1,3.5-.6,5.6,5.6,0,0,1,2,.3l-.7,2.4c-.2-.2-.5-.2-.8-.3h-1a8.2,8.2,0,0,0-3.5.8,11.8,11.8,0,0,0-2.7,2.3,10.9,10.9,0,0,0-1.7,3.2,11.3,11.3,0,0,0-.6,3.6V52.4h-2.4Z" transform="translate(-4 -0.9)" fill="#6a747c"/><path d="M122.7,60.4a3.2,3.2,0,0,0,1.3.8,3.8,3.8,0,0,0,1.9.4,3.1,3.1,0,0,0,2.5-1.1,16.6,16.6,0,0,0,1.7-3.3l2-5.2-11-24.4h2.7l9.6,21.5,8.2-21.5h2.6L132.1,58.2l-.8,1.8L130,61.8a6.1,6.1,0,0,1-1.7,1.4,4.7,4.7,0,0,1-2.4.5,6.5,6.5,0,0,1-2.6-.4,7.6,7.6,0,0,1-1.9-1.2Z" transform="translate(-4 -0.9)" fill="#6a747c"/></svg>